<svg width="352" height="80" viewBox="0 0 352 80" fill="none" xmlns="http://www.w3.org/2000/svg">
<path fill-rule="evenodd" clip-rule="evenodd" d="M88.6255 54.5482C80.074 51.1397 70.9456 49.412 61.7401 49.4596C55.5668 49.4596 52.0577 50.3297 52.0451 50.3511C52.2098 50.4663 52.391 50.597 52.5901 50.7406L52.5904 50.7409C56.2227 53.3616 65.7821 60.2587 88.6129 54.5822H88.5688L88.6255 54.5482ZM51.7039 49.22C48.6584 50.5991 45.2181 52.4957 42.3498 54.9543C48.1441 46.3123 50.2736 25.0022 50.2736 25.0022C50.2736 25.0022 40.3494 42.3453 42.2291 55.0584C40.5511 56.5142 39.0758 58.1649 38 60.0194V60.7737C40.7511 55.5062 46.8376 51.8266 51.8475 49.5587C53.7462 48.6873 55.6222 47.9821 57.3157 47.3814C77.7369 49.6368 96.0441 34.6075 96.0441 34.6075L96.0466 34.6063C96.0466 34.6063 71.5812 33.8406 57.2414 47.0414C55.3626 47.6809 53.5148 48.4078 51.7039 49.22ZM47.3135 49.6409C53.06 33.1874 74.4872 23 74.4872 23C74.4872 23 67.3935 42.7704 47.3135 49.6409ZM123.144 40.7905C124.16 41.3706 124.999 42.2186 125.567 43.2423C126.197 44.392 126.512 45.6877 126.483 46.9986C126.507 48.606 126.117 50.1926 125.349 51.605C124.638 52.9318 123.586 54.0454 122.302 54.8312C121.031 55.6102 119.567 56.0176 118.076 56.0074C115.665 56.0074 114.009 55.1838 113.114 53.5392L112.678 55.7454H107.472L111.715 34.469H117.167L115.778 41.3785C116.94 40.4252 118.405 39.9172 119.908 39.9455C121.041 39.9405 122.156 40.2314 123.144 40.7905ZM119.948 50.4125C120.673 49.5324 121.048 48.4161 121.002 47.2769C121.022 46.8795 120.963 46.4821 120.826 46.1083C120.69 45.7344 120.48 45.3919 120.209 45.1009C119.921 44.8232 119.579 44.6082 119.205 44.4695C118.83 44.3308 118.43 44.2713 118.032 44.295C117.525 44.2814 117.021 44.3828 116.559 44.5918C116.097 44.8007 115.688 45.1117 115.364 45.5014C114.646 46.3905 114.279 47.5118 114.331 48.6533C114.297 49.0501 114.351 49.4494 114.487 49.8235C114.624 50.1975 114.841 50.5372 115.122 50.8187C115.404 51.1003 115.743 51.317 116.117 51.4537C116.491 51.5904 116.891 51.6437 117.287 51.61C117.792 51.6235 118.294 51.5228 118.755 51.3154C119.215 51.1081 119.623 50.7994 119.948 50.4125ZM130.5 40.2024H135.919L132.82 55.7454H127.4L130.5 40.2024ZM131.702 37.7078C131.424 37.4716 131.202 37.1769 131.051 36.845C130.901 36.513 130.825 36.1519 130.83 35.7874C130.818 35.3691 130.898 34.9533 131.063 34.5689C131.229 34.1846 131.476 33.841 131.788 33.5623C132.492 32.9583 133.401 32.6469 134.327 32.6922C135.155 32.6488 135.97 32.9084 136.621 33.4225C136.9 33.649 137.123 33.9362 137.274 34.2623C137.425 34.5884 137.499 34.9447 137.491 35.3039C137.505 35.7343 137.425 36.1626 137.256 36.559C137.088 36.9555 136.836 37.3105 136.516 37.5995C135.807 38.2054 134.892 38.5167 133.96 38.4697C133.137 38.5087 132.329 38.2332 131.702 37.699V37.7078ZM163.276 41.3219C164.268 42.2411 164.765 43.5483 164.765 45.2407C164.764 45.886 164.697 46.5294 164.565 47.1611L162.875 55.7631H157.425L159.031 47.7139C159.107 47.355 159.145 46.9911 159.145 46.6246C159.188 46.0625 159.008 45.506 158.644 45.0757C158.451 44.8948 158.222 44.7554 157.973 44.6662C157.724 44.5769 157.46 44.5397 157.196 44.5569C155.453 44.5569 154.355 45.6764 153.899 47.9141L152.319 55.7505H146.872L148.505 47.7139C148.586 47.3651 148.626 47.0087 148.622 46.6511C148.665 46.0844 148.484 45.5236 148.119 45.0883C147.928 44.9035 147.701 44.7607 147.452 44.6692C147.203 44.5777 146.937 44.5394 146.672 44.5569C144.908 44.5569 143.799 45.6953 143.347 47.9695L141.798 55.7417H136.346L139.446 40.1986H144.608L144.291 41.7752C144.906 41.1773 145.633 40.7073 146.43 40.3925C147.228 40.0778 148.08 39.9246 148.937 39.9417C149.903 39.9258 150.858 40.1472 151.719 40.5865C152.528 41.0043 153.189 41.6611 153.612 42.4678C154.312 41.6644 155.177 41.0225 156.149 40.5865C157.148 40.1491 158.228 39.9293 159.318 39.9417C160.766 39.8729 162.185 40.3675 163.276 41.3219ZM190.335 40.7905C191.351 41.3708 192.188 42.2189 192.755 43.2423C193.387 44.3915 193.704 45.6874 193.674 46.9986C193.696 48.6056 193.307 50.1915 192.542 51.605C191.83 52.932 190.778 54.0455 189.494 54.8312C188.222 55.6102 186.758 56.0176 185.267 56.0074C182.856 56.0074 181.201 55.1838 180.305 53.5392L179.869 55.7454H174.681L178.925 34.469H184.371L182.994 41.3785C184.158 40.4248 185.623 39.9167 187.127 39.9455C188.25 39.9455 189.355 40.2377 190.335 40.7905ZM187.134 50.4125C187.849 49.531 188.217 48.4191 188.167 47.287C188.188 46.8896 188.129 46.4921 187.993 46.1179C187.858 45.7437 187.649 45.4004 187.379 45.1085C187.091 44.8311 186.749 44.6164 186.374 44.4779C186 44.3394 185.6 44.2802 185.202 44.3038C184.695 44.29 184.191 44.3914 183.729 44.6003C183.267 44.8093 182.858 45.1204 182.534 45.5102C181.816 46.3995 181.449 47.5207 181.502 48.6621C181.466 49.0592 181.517 49.4595 181.653 49.8343C181.79 50.2091 182.007 50.5493 182.289 50.8306C182.571 51.1127 182.911 51.3296 183.286 51.4658C183.66 51.602 184.06 51.6542 184.457 51.6188C184.966 51.6352 185.472 51.5351 185.936 51.326C186.4 51.1169 186.81 50.8044 187.134 50.4125ZM214.752 51.5597L214.177 55.6006C213.325 55.875 212.434 56.0114 211.539 56.0048C210.502 56.0445 209.473 55.8072 208.558 55.3173C207.809 54.8956 207.23 54.2258 206.921 53.4234C206.326 54.2467 205.54 54.9124 204.629 55.3623C203.719 55.8122 202.712 56.0328 201.697 56.0048C200.564 56.0028 199.451 55.7027 198.471 55.1347C197.452 54.5573 196.612 53.7087 196.046 52.6829C195.414 51.5243 195.097 50.2197 195.128 48.9001C195.106 47.3023 195.497 45.7258 196.264 44.324C196.981 42.9942 198.041 41.8803 199.334 41.0977C200.605 40.3191 202.069 39.9121 203.56 39.9228C205.815 39.9228 207.401 40.628 208.318 42.0422L208.692 40.1785H214.143L212.193 49.8446C212.161 50.0347 212.142 50.2261 212.136 50.4188C212.136 51.3166 212.611 51.7649 213.568 51.7649C213.973 51.7851 214.377 51.7146 214.752 51.5597ZM206.233 50.41C206.947 49.5297 207.315 48.4178 207.265 47.2845C207.285 46.8873 207.226 46.49 207.091 46.116C206.956 45.7421 206.747 45.399 206.476 45.1072C206.189 44.8299 205.847 44.6151 205.472 44.4764C205.098 44.3377 204.698 44.2781 204.299 44.3013C203.792 44.2876 203.289 44.3892 202.827 44.5984C202.365 44.8076 201.956 45.1189 201.631 45.5089C200.914 46.3982 200.547 47.5195 200.6 48.6609C200.565 49.0577 200.618 49.4574 200.754 49.8318C200.89 50.2062 201.107 50.5462 201.389 50.8279C201.67 51.1096 202.01 51.3262 202.385 51.4624C202.759 51.5986 203.159 51.6511 203.555 51.6163C204.064 51.6329 204.57 51.5328 205.034 51.3237C205.498 51.1146 205.909 50.8021 206.233 50.41ZM243.051 41.3206C244.043 42.2411 244.541 43.547 244.544 45.2394C244.541 45.8846 244.474 46.5279 244.344 47.1598L242.65 55.7631H237.2L238.811 47.734C238.884 47.3764 238.923 47.0112 238.923 46.646C238.966 46.0831 238.785 45.5253 238.418 45.0959C238.226 44.9146 237.998 44.7749 237.75 44.6857C237.501 44.5964 237.237 44.5594 236.973 44.5771C235.233 44.5771 234.132 45.6978 233.674 47.9343L232.098 55.7719H226.647L228.284 47.7428C228.362 47.394 228.4 47.0375 228.397 46.68C228.441 46.1143 228.261 45.554 227.897 45.1186C227.706 44.9337 227.478 44.7908 227.228 44.6991C226.979 44.6074 226.712 44.5688 226.447 44.5859C224.689 44.5859 223.58 45.7243 223.122 47.9997L221.563 55.7442H216.117L219.212 40.2024H224.376L224.057 41.7777C224.673 41.1804 225.401 40.711 226.199 40.3965C226.997 40.082 227.849 39.9287 228.707 39.9455C229.673 39.9291 230.628 40.15 231.488 40.589C232.296 41.0083 232.955 41.6649 233.378 42.4703C234.079 41.6683 234.944 41.027 235.915 40.5903C236.914 40.1535 237.994 39.9337 239.084 39.9455C240.535 39.8716 241.957 40.3647 243.051 41.3206ZM270.103 40.7905C271.121 41.3705 271.959 42.2185 272.528 43.2423C273.159 44.392 273.475 45.6877 273.447 46.9986C273.471 48.6063 273.079 50.1928 272.311 51.605C271.598 52.931 270.547 54.0443 269.264 54.8312C267.99 55.6097 266.524 56.017 265.032 56.0074C262.626 56.0074 260.972 55.1838 260.07 53.5392L259.634 55.7454H254.44L258.685 34.469H264.135L262.76 41.3785C263.921 40.4251 265.384 39.917 266.886 39.9455C268.014 39.9428 269.123 40.234 270.103 40.7905ZM266.908 50.4125C267.623 49.531 267.991 48.4191 267.94 47.287C267.96 46.8898 267.901 46.4925 267.766 46.1184C267.63 45.7448 267.422 45.4019 267.152 45.1097C266.864 44.8329 266.522 44.6185 266.148 44.4798C265.773 44.3412 265.374 44.2812 264.975 44.3038C264.469 44.2895 263.965 44.3907 263.504 44.5998C263.042 44.8088 262.634 45.1201 262.311 45.5102C261.594 46.3997 261.227 47.5208 261.28 48.6621C261.243 49.0588 261.294 49.4587 261.429 49.8336C261.564 50.2085 261.779 50.5494 262.059 50.8324C262.34 51.1153 262.679 51.3335 263.052 51.4715C263.426 51.6096 263.825 51.6641 264.222 51.6314C264.733 51.6468 265.241 51.545 265.706 51.3337C266.172 51.1224 266.583 50.8073 266.908 50.4125ZM278.697 55.1158C277.53 54.5808 276.544 53.7186 275.859 52.6338C275.174 51.513 274.825 50.2194 274.854 48.9064C274.83 47.3036 275.252 45.7257 276.072 44.3484C276.892 42.971 278.078 41.8484 279.499 41.1053C281.009 40.3076 282.696 39.9031 284.404 39.9291C285.885 39.8938 287.355 40.1916 288.705 40.8006C289.868 41.3325 290.853 42.188 291.543 43.2649C292.229 44.3801 292.578 45.6696 292.549 46.9785C292.575 48.585 292.156 50.1673 291.339 51.5504C290.521 52.9335 289.337 54.0633 287.917 54.8148C286.403 55.6161 284.71 56.0207 282.998 55.991C281.517 56.0249 280.047 55.7258 278.697 55.1158ZM285.993 50.4137C286.708 49.5323 287.075 48.4203 287.026 47.287C287.066 46.488 286.789 45.7053 286.255 45.1097C285.968 44.831 285.627 44.6152 285.252 44.4764C284.877 44.3376 284.477 44.2788 284.078 44.3038C283.571 44.2901 283.068 44.3916 282.607 44.6008C282.145 44.81 281.737 45.1214 281.414 45.5114C280.697 46.4009 280.329 47.5219 280.381 48.6634C280.357 49.0598 280.414 49.457 280.547 49.8311C280.68 50.2052 280.888 50.5486 281.157 50.8406C281.442 51.1129 281.78 51.3233 282.15 51.4587C282.52 51.5942 282.914 51.6517 283.307 51.6277C283.818 51.6442 284.326 51.5434 284.791 51.3329C285.257 51.1225 285.668 50.808 285.993 50.4137ZM297.766 55.1158C296.597 54.584 295.61 53.721 294.928 52.6338C294.243 51.5131 293.894 50.2195 293.922 48.9064C293.898 47.2919 294.325 45.7028 295.154 44.3177C295.979 42.957 297.159 41.8465 298.566 41.1053C300.076 40.3078 301.761 39.9033 303.468 39.9291C304.95 39.8944 306.422 40.1921 307.774 40.8006C308.936 41.3335 309.921 42.1883 310.612 43.2637C311.294 44.3806 311.642 45.6688 311.613 46.9785C311.639 48.585 311.22 50.1673 310.403 51.5504C309.585 52.9335 308.401 54.0633 306.981 54.8148C305.468 55.6155 303.778 56.0197 302.067 55.9897C300.586 56.0243 299.116 55.7257 297.766 55.1158ZM305.048 50.3961C305.763 49.5146 306.13 48.4027 306.081 47.2694C306.102 46.8732 306.044 46.4768 305.911 46.1031C305.778 45.7293 305.572 45.3857 305.305 45.0921C305.023 44.8151 304.685 44.6002 304.315 44.4614C303.945 44.3226 303.549 44.2629 303.154 44.2862C302.647 44.2722 302.144 44.3737 301.682 44.5829C301.219 44.7921 300.811 45.1036 300.486 45.4938C299.769 46.3832 299.402 47.5043 299.454 48.6457C299.432 49.042 299.489 49.4388 299.622 49.8127C299.755 50.1866 299.962 50.5301 300.23 50.823C300.515 51.0949 300.853 51.3052 301.223 51.4406C301.593 51.576 301.987 51.6337 302.38 51.61C302.886 51.6255 303.39 51.5259 303.852 51.3187C304.314 51.1115 304.723 50.8021 305.048 50.4137V50.3961ZM312.546 37.019C312.253 37.012 311.963 37.0636 311.69 37.1707C311.418 37.2778 311.17 37.4383 310.96 37.6428C310.751 37.8472 310.585 38.0915 310.471 38.3612C310.357 38.6309 310.299 38.9206 310.299 39.2133C310.299 39.5059 310.357 39.7956 310.471 40.0653C310.585 40.335 310.751 40.5793 310.96 40.7838C311.17 40.9882 311.418 41.1487 311.69 41.2558C311.963 41.363 312.253 41.4145 312.546 41.4075C313.119 41.3938 313.664 41.1566 314.064 40.7466C314.464 40.3366 314.688 39.7863 314.688 39.2133C314.688 38.6402 314.464 38.0899 314.064 37.6799C313.664 37.2699 313.119 37.0327 312.546 37.019ZM312.546 40.9366C312.206 40.9522 311.87 40.8602 311.585 40.6737C311.3 40.4872 311.081 40.2156 310.96 39.8977C310.88 39.6863 310.845 39.4608 310.858 39.2353C310.842 39.0069 310.875 38.7778 310.954 38.563C311.033 38.3481 311.156 38.1524 311.316 37.9886C311.475 37.8242 311.666 37.6952 311.878 37.6099C312.09 37.5246 312.318 37.4851 312.546 37.4937C312.888 37.483 313.225 37.5809 313.509 37.7733C313.792 37.9658 314.007 38.2431 314.124 38.5654C314.2 38.7794 314.231 39.0074 314.213 39.2353C314.228 39.459 314.195 39.6832 314.116 39.8931C314.037 40.103 313.915 40.2939 313.757 40.453C313.6 40.6129 313.411 40.7379 313.202 40.8199C312.994 40.9019 312.77 40.9391 312.546 40.929V40.9366ZM313.295 39.1185C313.233 39.2212 313.14 39.3013 313.029 39.347L313.408 39.9879C313.425 40.0154 313.434 40.0469 313.435 40.0792C313.436 40.1115 313.428 40.1434 313.413 40.1718C313.396 40.1994 313.373 40.2222 313.345 40.238C313.317 40.2538 313.285 40.2621 313.253 40.262C313.221 40.2618 313.189 40.2533 313.162 40.2373C313.134 40.2213 313.111 40.1982 313.094 40.1705L312.659 39.4427H312.224V40.0572C312.227 40.0722 312.227 40.0874 312.226 40.1025C312.225 40.1144 312.223 40.1262 312.22 40.1378C312.213 40.1641 312.2 40.1884 312.182 40.2092C312.17 40.2238 312.155 40.2364 312.139 40.2465C312.132 40.2508 312.125 40.2547 312.118 40.2581C312.093 40.2695 312.066 40.2755 312.039 40.2755C312.012 40.2755 311.985 40.2695 311.96 40.2581C311.936 40.2466 311.914 40.2299 311.896 40.2092C311.878 40.1884 311.866 40.1641 311.858 40.1378C311.851 40.1116 311.85 40.0841 311.854 40.0572V38.3156C311.853 38.2911 311.858 38.2667 311.867 38.244C311.876 38.2213 311.89 38.2007 311.907 38.1835C311.918 38.1729 311.93 38.1637 311.943 38.1562C311.952 38.1516 311.96 38.1477 311.969 38.1444C311.991 38.1357 312.016 38.1318 312.04 38.133H312.62C313.164 38.133 313.373 38.4076 313.373 38.7765C313.384 38.8959 313.357 39.0158 313.295 39.1185ZM312.237 39.0951H312.672C312.693 39.0983 312.715 39.0991 312.735 39.0977C312.759 39.0961 312.781 39.0918 312.804 39.0848C312.846 39.0713 312.885 39.0483 312.917 39.0175C312.949 38.9867 312.973 38.9489 312.988 38.9071C313.003 38.8654 313.009 38.8207 313.004 38.7765C313.007 38.733 313.001 38.6892 312.985 38.6484C312.977 38.6264 312.966 38.6056 312.952 38.5865C312.941 38.5701 312.928 38.5548 312.913 38.541C312.891 38.52 312.866 38.5026 312.839 38.4894C312.827 38.4836 312.815 38.4785 312.802 38.4744C312.76 38.4608 312.716 38.4569 312.672 38.463H312.237V39.0951Z" fill="currentcolor"/>
</svg>
