<svg width="352" height="80" viewBox="0 0 352 80" fill="none" xmlns="http://www.w3.org/2000/svg">
<path fill-rule="evenodd" clip-rule="evenodd" d="M295.842 22.1781H317.574C317.863 22.1531 318.135 22.3142 318.253 22.5792L319.693 26.3656C319.775 26.572 319.772 26.8028 319.684 27.0068C319.596 27.2109 319.431 27.3716 319.224 27.4533C318.768 27.5921 318.282 27.3548 318.11 26.9095C317.85 26.2304 317.483 25.5971 317.024 25.0332C316.45 24.4147 315.631 24.0834 314.789 24.1291H308.833V55.3314C308.833 55.7665 308.874 56.0928 309.553 56.0928C309.741 56.0924 309.92 56.1696 310.049 56.3061C310.177 56.4425 310.244 56.6261 310.232 56.8133V57.0309C310.244 57.2181 310.177 57.4017 310.049 57.5382C309.92 57.6746 309.741 57.7515 309.553 57.7515H303.889C303.702 57.7515 303.523 57.6746 303.394 57.5382C303.266 57.4017 303.199 57.2181 303.21 57.0309V56.7998C303.199 56.6125 303.266 56.4289 303.394 56.2925C303.523 56.156 303.702 56.0788 303.889 56.0792C304.568 56.0792 304.616 55.7529 304.616 55.3178V24.1291H298.66C297.818 24.0834 296.999 24.4147 296.426 25.0332C295.967 25.5971 295.6 26.2304 295.339 26.9095C295.165 27.3558 294.677 27.5927 294.219 27.4533C293.791 27.2802 293.582 26.7955 293.75 26.3656L295.162 22.5792C295.28 22.3142 295.553 22.1531 295.842 22.1781ZM291.862 56.12C291.052 56.1023 290.329 55.6059 290.021 54.8556L283.06 41.7424C287.896 40.1585 290.639 36.8004 290.639 32.3886C290.67 30.9077 290.358 29.4399 289.729 28.0991C289.146 26.8083 288.241 25.6893 287.101 24.8497C284.792 23.0823 281.437 22.1781 277.179 22.1781H268.119C267.932 22.1781 267.753 22.255 267.624 22.3914C267.496 22.5279 267.429 22.7115 267.44 22.8987V23.1162C267.427 23.3046 267.493 23.49 267.622 23.628C267.75 23.766 267.931 23.8441 268.119 23.8436C268.799 23.8436 268.846 24.1631 268.846 24.5982V47.5682C268.846 50.2398 268.085 52.4083 266.571 53.9582C264.912 55.5866 262.651 56.4509 260.33 56.3443C258.185 56.458 256.104 55.5962 254.666 53.999C253.324 52.1314 252.65 49.8663 252.751 47.5682V24.5982C252.751 24.1631 252.785 23.8436 253.471 23.8436C253.659 23.8441 253.84 23.766 253.968 23.628C254.097 23.49 254.163 23.3046 254.15 23.1162V22.8987C254.161 22.7115 254.094 22.5279 253.966 22.3914C253.837 22.255 253.658 22.1781 253.471 22.1781H247.773C247.585 22.1781 247.406 22.255 247.277 22.3914C247.149 22.5279 247.082 22.7115 247.093 22.8987V23.1162C247.08 23.3046 247.146 23.49 247.275 23.628C247.404 23.766 247.584 23.8441 247.773 23.8436C248.452 23.8436 248.492 24.1631 248.492 24.5982V47.5682C248.454 49.1973 248.749 50.8169 249.362 52.3267C249.964 53.629 250.837 54.7877 251.922 55.7257C253.96 57.3912 256.9 58.2545 260.33 58.2545C263.467 58.2545 266.062 57.2824 267.902 55.3654C268.249 55.0074 268.564 54.6208 268.846 54.2098V57.7854H273.858C274.046 57.7858 274.225 57.7086 274.353 57.5721C274.482 57.4357 274.548 57.2521 274.537 57.0649V56.7998C274.548 56.6125 274.482 56.4289 274.353 56.2925C274.225 56.156 274.046 56.0788 273.858 56.0792C273.179 56.0792 273.138 55.7529 273.138 55.3178V42.5854H277.179C277.805 42.5852 278.431 42.5489 279.053 42.4766L286.273 56.0724H286.164C285.977 56.072 285.797 56.1492 285.669 56.2857C285.54 56.4221 285.474 56.6057 285.485 56.7929V57.0105C285.474 57.1977 285.54 57.3813 285.669 57.5178C285.797 57.6542 285.977 57.7314 286.164 57.7311H291.862C292.049 57.7314 292.229 57.6542 292.357 57.5178C292.486 57.3813 292.552 57.1977 292.541 57.0105V56.7998C292.541 56.4243 292.237 56.12 291.862 56.12ZM65.8873 24.5982V39.0097L50.2672 38.9349V24.5982C50.2672 24.1631 50.2672 23.8436 50.9871 23.8436C51.1757 23.8441 51.3561 23.766 51.4849 23.628C51.6137 23.49 51.6794 23.3046 51.6662 23.1162V22.8987C51.6775 22.7115 51.6109 22.5279 51.4823 22.3914C51.3537 22.255 51.1745 22.1781 50.9871 22.1781H45.2824C45.095 22.1781 44.9157 22.255 44.7871 22.3914C44.6585 22.5279 44.592 22.7115 44.6032 22.8987V23.1162C44.59 23.3046 44.6557 23.49 44.7845 23.628C44.9133 23.766 45.0937 23.8441 45.2824 23.8436C45.9615 23.8436 46.0022 24.1631 46.0022 24.5982V55.3314C46.0022 55.7665 46.0022 56.0928 45.2824 56.0928C45.095 56.0924 44.9157 56.1696 44.7871 56.3061C44.6585 56.4425 44.592 56.6261 44.6032 56.8133V57.0309C44.592 57.2181 44.6585 57.4017 44.7871 57.5382C44.9157 57.6746 45.095 57.7515 45.2824 57.7515H51.021C51.2084 57.7515 51.3877 57.6746 51.5163 57.5382C51.6449 57.4017 51.7114 57.2181 51.7002 57.0309V56.7998C51.7114 56.6125 51.6449 56.4289 51.5163 56.2925C51.3877 56.156 51.2084 56.0788 51.021 56.0792C50.3419 56.0792 50.3012 55.7529 50.3012 55.3178V40.9267H65.9212V55.3314C65.9212 55.7665 65.8805 56.0928 65.2013 56.0928C65.0139 56.0924 64.8347 56.1696 64.7061 56.3061C64.5775 56.4425 64.511 56.6261 64.5222 56.8133V57.0309C64.511 57.2181 64.5775 57.4017 64.7061 57.5382C64.8347 57.6746 65.0139 57.7515 65.2013 57.7515H70.9332C71.1206 57.7515 71.2998 57.6746 71.4284 57.5382C71.557 57.4017 71.6236 57.2181 71.6123 57.0309V56.7998C71.6236 56.6125 71.557 56.4289 71.4284 56.2925C71.2998 56.156 71.1206 56.0788 70.9332 56.0792C70.2541 56.0792 70.2133 55.7529 70.2133 55.3178V24.5982C70.2133 24.1631 70.2133 23.8436 70.9332 23.8436C71.1219 23.8441 71.3022 23.766 71.4311 23.628C71.5599 23.49 71.6256 23.3046 71.6123 23.1162V22.8987C71.6236 22.7115 71.557 22.5279 71.4284 22.3914C71.2998 22.255 71.1206 22.1781 70.9332 22.1781H65.1674C64.98 22.1781 64.8008 22.255 64.6722 22.3914C64.5436 22.5279 64.477 22.7115 64.4882 22.8987V23.1162C64.475 23.3046 64.5407 23.49 64.6695 23.628C64.7984 23.766 64.9787 23.8441 65.1674 23.8436C65.8465 23.8436 65.8873 24.1699 65.8873 24.5982ZM277.179 40.6684H273.138V24.0951H277.179C283.128 24.0951 286.164 26.8755 286.164 32.3614C286.164 37.6365 282.877 40.6684 277.179 40.6684ZM213.728 27.093C216.968 23.6357 221.506 21.6953 226.242 21.743C230.976 21.716 235.511 23.6527 238.767 27.093C242.021 30.5994 243.803 35.2238 243.745 40.009C243.775 44.7891 241.997 49.4034 238.767 52.925C235.485 56.3188 230.967 58.2348 226.247 58.2348C221.528 58.2348 217.01 56.3188 213.728 52.925C210.468 49.4196 208.672 44.798 208.709 40.009C208.637 35.2136 210.438 30.5796 213.728 27.093ZM235.399 51.6877C233.269 54.6134 229.871 56.3438 226.254 56.3438C222.638 56.3438 219.239 54.6134 217.11 51.6877C214.644 48.2918 213.363 44.1786 213.463 39.9818C213.348 35.7924 214.613 31.6815 217.062 28.2826C219.176 25.3328 222.58 23.5833 226.207 23.5833C229.833 23.5833 233.238 25.3328 235.351 28.2826C237.818 31.6756 239.099 35.787 238.998 39.9818C239.112 44.1731 237.847 48.2858 235.399 51.6877ZM206.04 50.6817H204.96C204.668 50.6817 204.451 50.7904 204.199 51.1847C202.108 54.3321 198.176 56.3511 193.775 56.3511C190.168 56.3239 186.784 54.5988 184.64 51.6945C182.18 48.2964 180.901 44.1842 181 39.9886C180.9 35.795 182.179 31.6846 184.64 28.2894C186.774 25.369 190.16 23.6278 193.775 23.5921C197.72 23.5992 201.258 26.0281 202.685 29.7102C202.936 30.39 203.296 30.7231 203.765 30.6143C204.233 30.5055 204.308 30.0365 204.233 29.4927L203.765 25.4887C203.772 25.2872 203.678 25.0956 203.514 24.9789C200.743 22.8004 197.297 21.6627 193.775 21.7635C189.048 21.7218 184.519 23.6618 181.286 27.1134C178 30.6022 176.202 35.2354 176.274 40.0294C176.237 44.817 178.03 49.4375 181.286 52.9454C184.541 56.3606 189.059 58.2813 193.775 58.2545C198.884 58.3848 203.667 55.7507 206.291 51.3614C206.389 51.2472 206.417 51.0888 206.365 50.9476C206.313 50.8064 206.189 50.7046 206.04 50.6817ZM93.8472 21.7431C89.1224 21.7025 84.5961 23.6425 81.3647 27.093C78.0791 30.5818 76.2812 35.215 76.3527 40.009C76.3164 44.7966 78.1094 49.4171 81.3647 52.925C84.6175 56.3398 89.1334 58.2606 93.8472 58.2344C98.5802 58.2484 103.115 56.3312 106.404 52.925C109.636 49.4049 111.415 44.7896 111.382 40.009C111.444 35.2231 109.661 30.5975 106.404 27.093C103.14 23.6447 98.5927 21.7073 93.8472 21.7431ZM103.015 51.6877C100.884 54.6135 97.4848 56.3438 93.8675 56.3438C90.2502 56.3438 86.8507 54.6135 84.7196 51.6877C82.2573 48.2902 80.9762 44.1781 81.0727 39.9818C80.9752 35.7875 82.2564 31.6772 84.7196 28.2826C86.8347 25.3327 90.24 23.5834 93.8675 23.5834C97.495 23.5834 100.9 25.3327 103.015 28.2826C105.477 31.6778 106.756 35.7882 106.656 39.9818C106.755 44.1774 105.476 48.2896 103.015 51.6877ZM130.501 56.9104L139.35 27.8414L143.164 55.3041V55.4203C143.191 55.4812 143.191 55.5509 143.164 55.6117C143.014 55.7069 142.836 55.7456 142.66 55.7211C142.284 55.7211 141.979 56.0271 141.979 56.4046V56.6507C141.979 57.0282 142.284 57.3342 142.66 57.3342H148.375C148.751 57.3342 149.056 57.0282 149.056 56.6507V56.4046C149.03 56.0385 148.74 55.7473 148.375 55.7211C147.973 55.7211 147.483 55.6185 147.414 55.1264L143.096 23.7795V23.6633C143.072 23.6017 143.072 23.5335 143.096 23.4719C143.249 23.3841 143.425 23.3459 143.6 23.3626C143.976 23.3626 144.281 23.0565 144.281 22.679V22.433C144.281 22.0555 143.976 21.7494 143.6 21.7494H139.84C139.525 21.7378 139.244 21.9441 139.159 22.2484L130.815 49.5898L121.517 22.2484C121.435 21.9414 121.152 21.7317 120.836 21.7426H117.028C116.652 21.7426 116.347 22.0486 116.347 22.4261V22.6722C116.347 23.0497 116.652 23.3557 117.028 23.3557C117.43 23.3557 117.522 23.4484 117.558 23.484L117.559 23.4856C117.593 23.5198 117.593 23.6428 117.593 23.7522L114.133 55.1948C114.072 55.5639 113.765 55.7484 113.22 55.7484C112.855 55.7747 112.565 56.0659 112.539 56.432V56.678C112.539 57.0555 112.844 57.3616 113.22 57.3616H116.544C116.92 57.3616 117.225 57.0555 117.225 56.678V56.432C117.225 56.0545 116.92 55.7484 116.544 55.7484C116.161 55.7484 116.065 55.6644 116.021 55.6257L116.013 55.6186C115.972 55.5844 115.972 55.4613 115.972 55.352L119.037 27.8192L128.703 56.9446C128.814 57.2245 129.084 57.4085 129.384 57.4094H129.82C130.135 57.4211 130.416 57.2148 130.501 56.9104ZM153.992 58.2575H174.129C174.377 58.2474 174.604 58.1138 174.733 57.9017L176.189 54.0215C176.269 53.812 176.241 53.5768 176.114 53.3919C175.994 53.1856 175.776 53.056 175.537 53.0497H175.296C175.018 53.0472 174.766 53.212 174.658 53.4672L174.603 53.5698C174.322 54.2582 173.938 54.8997 173.463 55.4723C172.884 56.0931 172.059 56.4264 171.21 56.3825H159.033V41.3681H168.366C168.511 41.3681 168.84 41.3681 168.84 42.0524C168.84 42.4304 169.148 42.7368 169.527 42.7368H169.774C170.154 42.7368 170.461 42.4304 170.461 42.0524V38.7128C170.461 38.3349 170.154 38.0285 169.774 38.0285H169.527C169.148 38.0285 168.84 38.3349 168.84 38.7128C168.84 39.4314 168.511 39.4314 168.366 39.4314H159.033V24.4444H169.795C170.653 24.4188 171.477 24.7779 172.041 25.423C172.515 25.9818 172.882 26.6218 173.126 27.3118L173.243 27.4555C173.359 27.6977 173.606 27.8501 173.875 27.8456H174.122C174.342 27.8355 174.544 27.721 174.665 27.5376C174.821 27.3449 174.86 27.0832 174.768 26.8533L173.339 23.0278V22.9799C173.195 22.7379 172.934 22.5898 172.652 22.5898H153.992C153.612 22.5898 153.305 22.8962 153.305 23.2742V23.5137C153.334 23.8789 153.625 24.1689 153.992 24.198C154.678 24.198 154.678 24.5265 154.678 24.6634V56.1429C154.678 56.2798 154.678 56.6083 153.992 56.6083C153.625 56.6374 153.334 56.9274 153.305 57.2926V57.5732C153.305 57.9512 153.612 58.2575 153.992 58.2575Z" fill="currentcolor"/>
</svg>
