<svg width="352" height="80" viewBox="0 0 352 80" fill="none" xmlns="http://www.w3.org/2000/svg">
<path fill-rule="evenodd" clip-rule="evenodd" d="M243.997 15H194.664V64.3333H243.997V15ZM219.168 34.5429V34.7942H223.079L222.097 39.0208H219.174V49.3095H215.023V34.461C215.02 33.3513 215.239 32.2522 215.666 31.2282C216.413 29.4214 217.761 27.9284 219.483 27.0025C221.205 26.0765 223.194 25.7747 225.113 26.1482L224.166 30.1935C223.095 30.0256 222 30.2655 221.097 30.8658C220.498 31.2727 220.008 31.8211 219.672 32.4626C219.335 33.104 219.162 33.8185 219.168 34.5429ZM238.707 34.8194C237.313 33.4347 235.482 32.5761 233.526 32.3898C231.57 32.2036 229.609 32.7012 227.979 33.798C226.349 34.8948 225.149 36.5229 224.585 38.405C224.02 40.287 224.125 42.3066 224.883 44.1196C225.64 45.9327 227.003 47.4271 228.738 48.3483C230.474 49.2695 232.475 49.5605 234.401 49.1718C236.327 48.783 238.059 47.7385 239.301 46.2162C240.544 44.694 241.22 42.788 241.215 40.8232C241.207 38.5686 240.305 36.4092 238.707 34.8194ZM228.354 40.8232C228.354 39.9641 228.608 39.1243 229.086 38.4101C229.563 37.6958 230.241 37.1391 231.035 36.8103C231.829 36.4816 232.702 36.3955 233.545 36.5631C234.387 36.7307 235.161 37.1444 235.768 37.7519C236.376 38.3593 236.79 39.1332 236.957 39.9758C237.125 40.8183 237.039 41.6917 236.71 42.4853C236.381 43.279 235.825 43.9574 235.11 44.4346C234.396 44.9119 233.556 45.1666 232.697 45.1666C231.545 45.1666 230.44 44.709 229.626 43.8945C228.811 43.0799 228.354 41.9751 228.354 40.8232ZM206.832 45.1648C206.116 45.1665 205.41 44.991 204.778 44.654C204.146 44.317 203.607 43.8289 203.21 43.2333C202.812 42.6376 202.568 41.9528 202.499 41.2399C202.43 40.527 202.538 39.8081 202.814 39.1472C203.09 38.4863 203.525 37.9039 204.081 37.4519C204.637 37 205.295 36.6924 205.999 36.5566C206.702 36.4209 207.428 36.4611 208.112 36.6738C208.796 36.8865 209.416 37.265 209.919 37.7757L212.842 34.8527C211.653 33.6629 210.139 32.8524 208.49 32.5235C206.84 32.1947 205.131 32.3624 203.577 33.0055C202.023 33.6485 200.695 34.738 199.761 36.136C198.826 37.534 198.328 39.1778 198.328 40.8593C198.328 42.5409 198.826 44.1847 199.761 45.5827C200.695 46.9808 202.023 48.0702 203.577 48.7132C205.131 49.3563 206.84 49.524 208.49 49.1952C210.139 48.8663 211.653 48.0558 212.842 46.866L209.919 43.943C209.091 44.7418 207.982 45.181 206.832 45.1648ZM110.58 34.8399C109.231 33.4926 107.469 32.6382 105.576 32.4144C103.683 32.1907 101.77 32.6106 100.145 33.6064V32.3203H96V55.7623H100.145V48.0808C100.997 48.6041 101.935 48.9722 102.916 49.1681C104.702 49.5255 106.557 49.2984 108.204 48.5204C109.852 47.7425 111.206 46.455 112.065 44.8482C112.924 43.2415 113.244 41.4009 112.977 39.5985C112.709 37.7962 111.869 36.1277 110.58 34.8399ZM104.576 45.1871C103.717 45.1871 102.877 44.9324 102.163 44.4551C101.449 43.9778 100.892 43.2995 100.563 42.5058C100.234 41.7121 100.148 40.8388 100.316 39.9962C100.483 39.1537 100.897 38.3797 101.505 37.7723C102.112 37.1649 102.886 36.7512 103.729 36.5836C104.571 36.416 105.444 36.502 106.238 36.8307C107.032 37.1595 107.71 37.7162 108.187 38.4305C108.665 39.1448 108.919 39.9846 108.919 40.8436C108.919 41.9925 108.464 43.0947 107.653 43.9087C106.843 44.7228 105.742 45.1825 104.593 45.1871H104.576ZM118.711 33.9046V32.5951H114.531V49.0103H118.711L118.752 41.1067C118.757 39.9242 119.209 38.7874 120.018 37.9251C120.827 37.0628 121.933 36.539 123.113 36.4592L123.072 32.3203C121.499 32.4313 119.988 32.9801 118.711 33.9046ZM138.638 34.8067C137.25 33.4207 135.423 32.559 133.471 32.3683C131.518 32.1777 129.559 32.67 127.929 33.7613C126.298 34.8525 125.096 36.4754 124.528 38.3533C123.959 40.2313 124.06 42.2482 124.811 44.0606C125.563 45.8729 126.92 47.3686 128.651 48.2929C130.381 49.2171 132.379 49.5128 134.303 49.1295C136.228 48.7462 137.96 47.7077 139.204 46.1908C140.449 44.674 141.129 42.7725 141.129 40.8104C141.129 39.6951 140.909 38.5908 140.481 37.5606C140.054 36.5304 139.428 35.5946 138.638 34.8067ZM128.291 40.8104C128.291 39.9514 128.546 39.1116 129.023 38.3973C129.501 37.683 130.179 37.1263 130.973 36.7976C131.766 36.4688 132.64 36.3828 133.482 36.5504C134.325 36.718 135.099 37.1317 135.706 37.7391C136.313 38.3466 136.727 39.1205 136.895 39.9631C137.062 40.8056 136.976 41.679 136.648 42.4726C136.319 43.2663 135.762 43.9447 135.048 44.4219C134.334 44.8992 133.494 45.1539 132.635 45.1539C131.483 45.1524 130.379 44.6943 129.565 43.88C128.751 43.0658 128.293 41.9619 128.291 40.8104ZM186.088 32.7612C187.538 33.2949 188.776 34.2829 189.618 35.5779C190.375 36.7418 190.779 38.1001 190.781 39.4888V49.0351H186.637V39.5648C186.602 38.787 186.269 38.0524 185.707 37.5141C185.144 36.9758 184.396 36.6753 183.617 36.6753C182.839 36.6753 182.09 36.9758 181.528 37.5141C180.965 38.0524 180.632 38.787 180.598 39.5648V49.0409H176.453V39.4888C176.452 37.9441 176.949 36.4404 177.873 35.2019C178.796 33.9635 180.094 33.0567 181.575 32.6168C183.056 32.1769 184.639 32.2276 186.088 32.7612ZM149.363 42.8373L153.321 32.4258H157.758L151.579 48.6657L151.48 48.9229H147.241L147.142 48.6657L140.969 32.4258H145.406L149.363 42.8373ZM174.506 42.4862C174.615 41.9415 174.672 41.3875 174.676 40.8318C174.678 39.01 174.094 37.2357 173.01 35.771C171.927 34.3063 170.401 33.2287 168.659 32.6974C166.916 32.166 165.049 32.2091 163.332 32.8202C161.616 33.4313 160.142 34.578 159.127 36.0911C158.112 37.6042 157.611 39.4035 157.697 41.2233C157.783 43.0432 158.452 44.7871 159.605 46.1977C160.758 47.6083 162.334 48.6109 164.1 49.0573C165.866 49.5037 167.73 49.3704 169.414 48.677C169.716 48.5517 170.008 48.4072 170.291 48.2444C171.465 47.5907 172.467 46.6669 173.214 45.5495C173.517 45.0918 173.775 44.6064 173.986 44.0997H169.04C168.252 44.793 167.237 45.1754 166.187 45.1753C165.861 45.1744 165.535 45.1371 165.217 45.0643C164.542 44.9075 163.914 44.5918 163.385 44.1434C162.856 43.695 162.442 43.1269 162.177 42.4862H174.506ZM166.182 36.465C166.879 36.4662 167.566 36.6351 168.185 36.9577C168.803 37.2802 169.335 37.7468 169.736 38.3181C169.923 38.5897 170.078 38.882 170.198 39.1891H162.171C162.291 38.882 162.446 38.5897 162.633 38.3181C163.033 37.7476 163.564 37.2815 164.182 36.959C164.799 36.6365 165.485 36.4671 166.182 36.465Z" fill="currentcolor"/>
</svg>
